<svg id="Layer_1" data-name="Layer 1" xmlns="http://www.w3.org/2000/svg" viewBox="0 0 949.26 994.51"><defs><style>.cls-1,.cls-2{fill:none;stroke-miterlimit:1;stroke-width:32.91px;}.cls-1{stroke:#00b7ba;stroke-dasharray:39.18 39.18;}.cls-2{stroke:#0023b5;}.cls-3{fill:#0023b5;}.cls-4{fill:#00b7ba;}</style></defs><title>Toben Software</title><circle class="cls-1" cx="475.86" cy="253.39" r="236.94"/><circle class="cls-2" cx="475.86" cy="253.39" r="162.37"/><ellipse class="cls-2" cx="475.86" cy="253.39" rx="89.7" ry="162.37"/><line class="cls-2" x1="475.86" y1="91.02" x2="475.86" y2="415.77"/><line class="cls-2" x1="636.15" y1="191.97" x2="315.57" y2="191.97"/><line class="cls-2" x1="636.15" y1="314.81" x2="315.57" y2="314.81"/><path class="cls-3" d="M146.42,622.33H65.66V578H282.6v44.33H202.13V807.42H146.42Z" transform="translate(-64.5 -38.55)"/><path class="cls-3" d="M419.78,723.12c0,51.81-35.81,88.86-98.3,88.86-62.69,0-94.75-42.15-94.75-88.82,0-46.16,33.19-88.62,96.91-88.62C389.24,634.54,419.78,681.36,419.78,723.12Zm-138.88,0c0,26.17,14.52,48.66,42.38,48.66,28.66,0,41.76-22.14,41.76-47.8,0-25.42-12.63-49.31-42.17-49.31C294,674.71,280.9,697.21,280.9,723.16Z" transform="translate(-64.5 -38.55)"/><path class="cls-3" d="M432.17,564.89H485.4v92.39c8.43-10,23.88-22.74,55.85-22.74,45.68,0,81.87,35.34,81.87,85.4,0,57.76-38,92-85.43,92-32.26,0-46.37-11.81-54.3-23.55,0,4.36-.33,15-.69,19H431.84c.33-24.34.33-37.54.33-56.14ZM568.38,722.27c0-23.73-12.47-46.37-41.74-46.37-29.44,0-42.55,18.86-42.55,47.18,0,26.73,14.27,47,42,47C554.63,770.06,568.38,748.93,568.38,722.27Z" transform="translate(-64.5 -38.55)"/><path class="cls-3" d="M688.51,736.21c1.38,20.33,16.14,36.22,41.35,36.22,20.1,0,29.58-6.15,35.7-16.48h53.23c-10.15,29.82-35.46,56-89.49,56-68.91,0-93.77-45.71-93.77-88.5,0-47.41,31.87-88.94,93.36-88.94,65.51,0,91.93,45.11,91.93,89,0,4.25,0,7.31-.28,12.71Zm78.32-32.6c-1.06-12.84-8-31.81-38-31.81-28,0-38.12,15.26-39.7,31.81Z" transform="translate(-64.5 -38.55)"/><path class="cls-3" d="M838.68,681.58c0-14.25,0-30.39-.32-42.48h52c.65,4.76,1.26,14.95,1.55,21.74,7.7-11.64,23.07-26.3,55.87-26.3,41.43,0,66,25.67,66,69.06V807.42H960V712.1c0-19.27-7.46-36.2-31.38-36.2-24.83,0-36.38,17.22-36.38,47.56v84H838.68Z" transform="translate(-64.5 -38.55)"/><path class="cls-4" d="M84.38,978c5.45,24.09,21.69,37.82,51.2,37.82,32.39,0,45-15.78,45-35.17,0-20.34-9.42-32.43-49.49-42.24C88.87,928,72.35,914,72.35,886.91c0-26.4,19.34-49.55,60.76-49.55,43.29,0,61.35,25.76,63.84,49.65H177.06c-3.91-18.77-16-33-44.81-33-25.44,0-39.48,11.68-39.48,31.44,0,19.49,11.68,27.12,45.86,35.51,53.72,13.23,62.34,34.48,62.34,58,0,29.12-21.39,53.18-66.41,53.18-47.57,0-66.35-26.94-70.06-54Z" transform="translate(-64.5 -38.55)"/><path class="cls-4" d="M338.8,961.15c0,38.64-21.75,71.91-63,71.91-37.95,0-61.26-30.34-61.26-71.56,0-39.69,22.34-71.72,62.71-71.72C314.36,889.78,338.8,918.22,338.8,961.15Zm-105.27.27c0,31.38,16.35,55.64,43.32,55.64,27.48,0,43-22.71,43-55.6,0-31.59-15.3-55.68-43.51-55.68C247.68,905.78,233.53,929.33,233.53,961.42Z" transform="translate(-64.5 -38.55)"/><path class="cls-4" d="M366,1029.8v-121H343.17V893H366V875c0-24,8-47.88,38.4-47.88A55.27,55.27,0,0,1,418.61,829v16.27a63.37,63.37,0,0,0-13.5-1.46c-15.21,0-20.88,10.11-20.88,32.19v17h28.71v15.78H384.23v121Z" transform="translate(-64.5 -38.55)"/><path class="cls-4" d="M426.45,893h24.62V851.43h18.21V893h31.47v15.78H469.28V993.7c0,14.39,3.26,22.26,16.05,22.26a51.7,51.7,0,0,0,13.17-1.41v14.66c-5.19,2-12.45,2.49-18.55,2.49-19.22,0-28.88-9.79-28.88-32.05V908.82H426.45Z" transform="translate(-64.5 -38.55)"/><path class="cls-4" d="M535.78,893c18.76,67.63,29.57,106.37,31.83,119.33h.32c2.3-11.74,14.15-50.66,34.61-119.33h18.59c23.58,81.27,30.67,104.76,33,116.19h.28c3.63-14.86,9.53-35.37,33-116.19H706.2L663.48,1029.8H643.65c-14.11-49.07-29.77-102.42-32.58-116h-.27c-2.63,14.1-16.68,59.7-33.39,116h-21L516.49,893Z" transform="translate(-64.5 -38.55)"/><path class="cls-4" d="M813.24,1002.06c0,12.22,1.09,23.56,1.9,27.74H797.7c-1.09-3.18-1.91-9.42-2.36-19.62-4.71,9.66-16.23,22.88-43.66,22.88-32,0-45.68-20.73-45.68-41.38,0-30.29,23.58-44.09,64.43-44.09h24.78v-12.9c0-12.94-4-29.62-32.62-29.62-25.45,0-29.44,13-32.21,24H712.52c1.72-16.78,12.09-39.36,50.56-39.31,32.2,0,50.16,13.39,50.16,43.94Zm-17.81-40.61H770.76c-28.94,0-45.87,7.75-45.87,29.34,0,15.86,11.14,27,29.25,27,36.29,0,41.29-24.25,41.29-51.64Z" transform="translate(-64.5 -38.55)"/><path class="cls-4" d="M830.44,930.22c0-21.22-.23-31.48-.27-37.18H848c.32,4.13.64,13.78.64,29.39,7.57-19.6,24.53-31.74,46.89-32.65v18.77c-28.26,1.42-46.89,18.81-46.89,52.28v69H830.44Z" transform="translate(-64.5 -38.55)"/><path class="cls-4" d="M910.27,964.27c.23,31.88,16.28,52.79,41.15,52.79,23.85,0,31.8-13,36.48-23.63h18.44c-5.58,17.81-20.16,39.63-55.55,39.63-42.22,0-59-35.43-59-70.38,0-39.82,19.91-72.9,60.59-72.9,43,0,56.91,35.93,56.91,63.22,0,4,0,7.65-.31,11.27Zm80.36-14.14c-.27-25-13.47-44.83-38.71-44.83-26.29,0-38.11,18.34-40.83,44.83Z" transform="translate(-64.5 -38.55)"/></svg>