<svg id="Layer_1" data-name="Layer 1" xmlns="http://www.w3.org/2000/svg" viewBox="0 0 979.33 149.18"><defs><style>.cls-1{fill:#0023b5;}.cls-2{fill:#00b7ba;}.cls-3{fill:none;stroke:gray;stroke-miterlimit:10;stroke-width:8px;}</style></defs><title>Toben Software 2</title><path class="cls-1" d="M91.44,125.13H50.24V102.51H160.91v22.62h-41v94.41H91.44Z" transform="translate(-50 -95.82)"/><path class="cls-1" d="M230.89,176.54c0,26.43-18.27,45.33-50.15,45.33s-48.33-21.5-48.33-45.31c0-23.55,16.93-45.21,49.44-45.21C215.31,131.35,230.89,155.24,230.89,176.54Zm-70.85,0c0,13.35,7.41,24.82,21.62,24.82,14.62,0,21.3-11.29,21.3-24.38s-6.44-25.16-21.51-25.16C166.73,151.84,160,163.32,160,176.56Z" transform="translate(-50 -95.82)"/><path class="cls-1" d="M237.21,95.82h27.15V143c4.3-5.12,12.18-11.6,28.49-11.6,23.31,0,41.77,18,41.77,43.57,0,29.46-19.38,47-43.58,47-16.46,0-23.65-6-27.7-12,0,2.23-.17,7.67-.35,9.69H237c.17-12.41.17-19.15.17-28.64Zm69.48,80.29c0-12.11-6.36-23.66-21.29-23.66s-21.7,9.62-21.7,24.07c0,13.64,7.27,24,21.43,24C299.68,200.48,306.69,189.71,306.69,176.11Z" transform="translate(-50 -95.82)"/><path class="cls-1" d="M368,183.21c.7,10.38,8.23,18.48,21.09,18.48,10.25,0,15.09-3.13,18.21-8.4h27.16c-5.18,15.21-18.09,28.58-45.66,28.58-35.15,0-47.83-23.32-47.83-45.14,0-24.19,16.26-45.38,47.63-45.38,33.41,0,46.89,23,46.89,45.38,0,2.17,0,3.73-.14,6.48Zm39.95-16.62c-.54-6.55-4.07-16.23-19.37-16.23-14.26,0-19.45,7.78-20.25,16.23Z" transform="translate(-50 -95.82)"/><path class="cls-1" d="M444.59,155.35c0-7.27,0-15.5-.17-21.67H471c.33,2.43.64,7.62.79,11.09,3.93-5.94,11.77-13.42,28.5-13.42,21.14,0,33.66,13.1,33.66,35.23v53H506.45V170.92c0-9.83-3.8-18.47-16-18.47-12.66,0-18.56,8.78-18.56,24.26v42.83H444.59Z" transform="translate(-50 -95.82)"/><path class="cls-2" d="M553.34,193.12c2.78,12.3,11.06,19.3,26.12,19.3,16.52,0,22.93-8,22.93-17.94,0-10.38-4.8-16.55-25.24-21.55-21.52-5.31-29.95-12.47-29.95-26.28,0-13.46,9.87-25.27,31-25.27,22.08,0,31.29,13.14,32.56,25.32H600.62c-2-9.57-8.14-16.86-22.86-16.86-13,0-20.14,6-20.14,16s6,13.84,23.39,18.12c27.41,6.75,31.8,17.59,31.8,29.57,0,14.85-10.9,27.13-33.88,27.13-24.26,0-33.84-13.74-35.73-27.58Z" transform="translate(-50 -95.82)"/><path class="cls-2" d="M683.13,184.52c0,19.72-11.1,36.69-32.14,36.69-19.36,0-31.25-15.48-31.25-36.5,0-20.25,11.4-36.6,32-36.6C670.66,148.11,683.13,162.62,683.13,184.52Zm-53.71.14c0,16,8.34,28.39,22.11,28.39,14,0,21.91-11.59,21.91-28.37,0-16.11-7.8-28.4-22.19-28.4C636.64,156.28,629.42,168.29,629.42,184.66Z" transform="translate(-50 -95.82)"/><path class="cls-2" d="M697,219.54V157.83H685.36v-8.05H697v-9.2c0-12.22,4.06-24.42,19.59-24.42a28.51,28.51,0,0,1,7.24.94v8.3a33,33,0,0,0-6.89-.74c-7.75,0-10.65,5.16-10.65,16.42v8.7H721v8.05H706.3v61.71Z" transform="translate(-50 -95.82)"/><path class="cls-2" d="M727.84,149.78H740.4V128.55h9.29v21.23h16v8.05h-16v43.3c0,7.34,1.66,11.36,8.19,11.36a26.38,26.38,0,0,0,6.71-.72v7.47c-2.64,1-6.35,1.27-9.46,1.27-9.8,0-14.73-5-14.73-16.35V157.83H727.84Z" transform="translate(-50 -95.82)"/><path class="cls-2" d="M783.61,149.78c9.57,34.5,15.09,54.26,16.24,60.88H800c1.18-6,7.22-25.85,17.66-60.88h9.48c12,41.46,15.65,53.44,16.85,59.27h.14C846,201.47,849,191,861,149.78h9.59l-21.8,69.76H838.64c-7.2-25-15.19-52.24-16.62-59.18h-.14c-1.34,7.2-8.51,30.46-17,59.18h-10.7l-20.38-69.76Z" transform="translate(-50 -95.82)"/><path class="cls-2" d="M925.15,205.39a92.69,92.69,0,0,0,1,14.15h-8.9c-.55-1.62-1-4.8-1.2-10-2.4,4.92-8.28,11.67-22.27,11.67-16.3,0-23.3-10.58-23.3-21.11,0-15.45,12-22.49,32.87-22.49H916V171c0-6.59-2-15.1-16.64-15.1-13,0-15,6.65-16.43,12.25h-9.11c.88-8.56,6.17-20.08,25.79-20.06,16.43,0,25.59,6.84,25.59,22.42Zm-9.08-20.71H903.48c-14.76,0-23.4,3.95-23.4,15,0,8.08,5.69,13.76,14.93,13.76,18.51,0,21.06-12.37,21.06-26.35Z" transform="translate(-50 -95.82)"/><path class="cls-2" d="M933.93,168.75c0-10.83-.12-16.06-.14-19h9.1c.16,2.11.32,7,.32,15,3.87-10,12.52-16.19,23.93-16.66v9.58c-14.42.73-23.93,9.6-23.93,26.67v35.18h-9.28Z" transform="translate(-50 -95.82)"/><path class="cls-2" d="M978.81,186.12c.12,16.26,8.31,26.93,21,26.93,12.17,0,16.23-6.62,18.61-12.06h9.41c-2.85,9.09-10.28,20.22-28.34,20.22-21.54,0-30.1-18.08-30.1-35.91,0-20.31,10.16-37.19,30.91-37.19,22,0,29,18.33,29,32.25,0,2,0,3.91-.17,5.76Zm41-7.22c-.13-12.74-6.87-22.87-19.74-22.87-13.41,0-19.44,9.36-20.83,22.87Z" transform="translate(-50 -95.82)"/><line class="cls-3" y1="145.18" x2="979" y2="145.18"/></svg>